name analog
datacolumns 19
datarows 18
range 0.0 0.0085
endheader
time	ground_force_vx	ground_force_vy	ground_force_vz	ground_force_px	ground_force_py	ground_force_pz	l_ground_force_vx	l_ground_force_vy	l_ground_force_vz	l_ground_force_px	l_ground_force_py	l_ground_force_pz	ground_torque_x	ground_torque_y	ground_torque_z	l_ground_torque_x	l_ground_torque_y	l_ground_torque_z
0.0	-0.0	-0.0	-0.0	0.0625169426202774	14.808981895446776	-201.0947265625	-0.5455158948898315	-15.788936614990234	-303.5465393066406	-0.0	-0.0	-0.0	-0.0	-0.0	-0.0	90384.859375	10665.2578125	-1786.74365234375
0.0005	-0.0	-0.0	-0.0	0.2544853985309601	15.055218696594238	-199.8168182373047	-0.2113423943519592	-15.747248649597168	-303.2278747558594	-0.0	-0.0	-0.0	-0.0	-0.0	-0.0	90442.5703125	10849.4384765625	-1758.69287109375
0.001	-0.0	-0.0	-0.0	0.1865345388650894	15.236442565917969	-200.85665893554688	-0.4564344584941864	-15.864188194274902	-302.8477478027344	-0.0	-0.0	-0.0	-0.0	-0.0	-0.0	90326.15625	10683.4423828125	-1731.885009765625
0.0015	-0.0	-0.0	-0.0	0.0	14.88054084777832	-200.20257568359372	-0.485828697681427	-15.944135665893556	-303.1631774902344	-0.0	-0.0	-0.0	-0.0	-0.0	-0.0	90402.734375	10607.0341796875	-1724.90966796875
0.002	-0.0	-0.0	-0.0	0.1872068345546722	15.39444065093994	-199.7655334472656	0.0462094992399215	-15.922752380371094	-303.5309143066406	-0.0	-0.0	-0.0	-0.0	-0.0	-0.0	90615.59375	10697.298828125	-1646.812744140625
0.0025	-0.0	-0.0	-0.0	0.1784210205078125	15.42872428894043	-200.16786193847656	0.1988263577222824	-15.9771089553833	-301.8354797363281	-0.0	-0.0	-0.0	-0.0	-0.0	-0.0	90346.515625	10558.66015625	-1668.164794921875
0.003	-0.0	-0.0	-0.0	0.4027617573738098	15.720703125	-199.54666137695312	0.0551243908703327	-16.019664764404297	-302.7992248535156	-0.0	-0.0	-0.0	-0.0	-0.0	-0.0	90406.3515625	10543.05859375	-1645.9273681640625
0.0035	-0.0	-0.0	-0.0	0.3905672132968902	15.308688163757324	-200.47268676757807	-0.1438921838998794	-15.888171195983888	-303.54473876953125	-0.0	-0.0	-0.0	-0.0	-0.0	-0.0	90276.328125	10459.984375	-1706.2000732421875
0.004	-0.0	-0.0	-0.0	0.4358699023723602	14.728411674499512	-199.9462890625	0.0334523059427738	-15.821176528930664	-302.93194580078125	-0.0	-0.0	-0.0	-0.0	-0.0	-0.0	90625.7890625	10651.83984375	-1583.4805908203125
0.0045000000000000005	-0.0	-0.0	-0.0	0.6465224027633667	15.240283966064451	-199.50100708007807	-0.221299797296524	-15.876060485839844	-303.14996337890625	-0.0	-0.0	-0.0	-0.0	-0.0	-0.0	90810.7890625	10557.65625	-1687.7039794921875
0.005	-0.0	-0.0	-0.0	0.9926769137382508	15.096531867980955	-199.36895751953125	-0.1661440432071685	-15.964269638061523	-303.8043212890625	-0.0	-0.0	-0.0	-0.0	-0.0	-0.0	90469.640625	10597.1513671875	-1672.7332763671875
0.0055	-0.0	-0.0	-0.0	1.1931830644607544	15.419559478759766	-199.81149291992188	-0.4656465053558349	-15.953118324279783	-303.2818908691406	-0.0	-0.0	-0.0	-0.0	-0.0	-0.0	90584.046875	10580.458984375	-1658.14404296875
0.006	-0.0	-0.0	-0.0	1.2713985443115234	15.007851600646973	-199.06134033203125	-0.1665747165679931	-16.12982749938965	-303.8046264648437	-0.0	-0.0	-0.0	-0.0	-0.0	-0.0	90635.3125	10822.7041015625	-1683.9686279296875
0.006500000000000001	-0.0	-0.0	-0.0	1.294160008430481	15.196125984191896	-199.8103485107422	-0.5441422462463379	-15.87550926208496	-302.7562255859375	-0.0	-0.0	-0.0	-0.0	-0.0	-0.0	90588.734375	10626.3681640625	-1769.6407470703125
0.007	-0.0	-0.0	-0.0	1.2716667652130127	14.505556106567385	-199.06846618652344	-0.2991848587989807	-15.875396728515623	-303.8441467285156	-0.0	-0.0	-0.0	-0.0	-0.0	-0.0	90356.90625	10699.2998046875	-1743.3709716796875
0.0075	-0.0	-0.0	-0.0	1.2489471435546875	14.70651626586914	-199.76844787597656	-0.2206941246986389	-16.173099517822266	-302.8038635253906	-0.0	-0.0	-0.0	-0.0	-0.0	-0.0	90472.328125	10878.00390625	-1679.9210205078125
0.008	-0.0	-0.0	-0.0	1.0475375652313232	15.019843101501465	-197.11447143554688	-0.2990511059761047	-16.130094528198242	-302.494873046875	-0.0	-0.0	-0.0	-0.0	-0.0	-0.0	90445.2890625	10720.8134765625	-1657.8472900390625
0.0085	-0.0	-0.0	-0.0	1.3844013214111328	14.293878555297852	-197.33604431152344	-0.5322647094726562	-16.1170597076416	-303.5032958984375	-0.0	-0.0	-0.0	-0.0	-0.0	-0.0	90296.234375	10785.8046875	-1829.3643798828125
